<?xml version="1.0" encoding="utf-8"?>
<!-- Svg Vector Icons : http://www.onlinewebfonts.com/icon -->
<!DOCTYPE svg PUBLIC "-//W3C//DTD SVG 1.1//EN" "http://www.w3.org/Graphics/SVG/1.1/DTD/svg11.dtd">
<svg version="1.1" xmlns="http://www.w3.org/2000/svg" xmlns:xlink="http://www.w3.org/1999/xlink" x="0px" y="0px" viewBox="0 0 1000 1000" enable-background="new 0 0 1000 1000" xml:space="preserve">
<metadata> Svg Vector Icons : http://www.onlinewebfonts.com/icon </metadata>
<g><g transform="translate(0.000000,512.000000) scale(0.100000,-0.100000)"><path d="M1711,4996.3c-164.6-61.3-325.5-235.5-369.5-398.2c-13.4-45.9-17.2-1646.5-15.3-4518.2l5.7-4449.2l44-82.3c63.2-120.6,160.8-218.3,266.1-271.9l91.9-47.9l3235.5-5.7c3687.3-5.7,3346.5-21.1,3534.1,166.6c187.6,189.5,170.4-227.8,170.4,4087.4v3792.6l-45.9,95.7c-34.5,74.7-201,250.8-750.5,798.3c-388.7,384.8-733.3,723.7-767.7,750.5c-137.9,113,34.5,107.2-2766.4,105.3C2425,5019.3,1756.9,5011.6,1711,4996.3z M6629.2,3862.9l5.7-756.2l63.2-61.3l61.3-63.2l756.2-5.7l756.2-5.8V-664.8c0-3612.6,0-3637.5-38.3-3675.8c-38.3-38.3-63.2-38.3-3235.5-38.3c-3172.3,0-3197.2,0-3235.5,38.3c-38.3,38.3-38.3,63.2-38.3,4460.7c0,4397.5,0,4422.4,38.3,4460.7c38.3,38.3,63.2,38.3,2450.5,38.3h2410.3L6629.2,3862.9z M7563.5,3901.2l507.3-507.3h-513.1h-511.2v507.3c0,279.5,1.9,507.3,5.7,507.3C7054.3,4408.6,7284,4180.7,7563.5,3901.2z"/><path d="M2813.7,1691.9c-82.3-84.2-78.5-193.4,9.6-281.4l65.1-65.1l1215.7,3.8l1215.7,5.7l49.8,45.9c97.6,91.9,76.6,271.9-38.3,325.5c-34.5,15.3-405.8,21.1-1254,21.1h-1208L2813.7,1691.9z"/><path d="M2813.7,466.7c-82.3-82.3-78.5-193.4,9.6-281.4l65.1-65.1h2119.3H7127l65.1,65.1c93.8,93.8,86.2,218.2-19.1,302.5c-38.3,30.6-181.9,34.5-2171,34.5H2869.2L2813.7,466.7z"/><path d="M2813.7-758.6c-90-91.9-70.8-248.9,40.2-314c49.8-30.6,229.7-32.5,2163.4-32.5H7127l65.1,65.1c93.8,93.8,86.2,218.2-19.1,302.5c-38.3,30.6-181.9,34.5-2171,34.5H2869.2L2813.7-758.6z"/><path d="M2813.7-1983.9c-90-91.9-70.8-248.9,40.2-314c49.8-30.6,229.7-32.5,2163.4-32.5H7127l65.1,65.1c93.8,93.8,86.2,218.2-19.1,302.5c-38.3,30.6-181.9,34.5-2171,34.5H2869.2L2813.7-1983.9z"/></g></g>
</svg>
