<?xml version="1.0" encoding="UTF-8" standalone="no"?><svg xmlns="http://www.w3.org/2000/svg" xmlns:xlink="http://www.w3.org/1999/xlink"><symbol viewBox="0 0 48.005 75.279" id="file" xmlns="http://www.w3.org/2000/svg"><defs><clipPath id="aa"><path d="M0 56.459h36.004V0H0z"/></clipPath></defs><g clip-path="url(#aa)" transform="matrix(1.33333 0 0 -1.33333 0 75.28)"><path d="M4.89 54.132a2.565 2.565 0 0 1-2.562-2.561V4.888c0-1.41 1.15-2.56 2.562-2.56h26.226a2.565 2.565 0 0 1 2.56 2.56V40.97L20.516 54.13zM31.116 0H4.89A4.896 4.896 0 0 0 0 4.888V51.57a4.895 4.895 0 0 0 4.89 4.888h16.107c.309 0 .605-.121.823-.341l13.842-13.842c.22-.218.342-.514.342-.824V4.888A4.893 4.893 0 0 0 31.116 0"/><path d="M22.16 52.485v-7.309a2.564 2.564 0 0 1 2.563-2.559h7.308zM34.84 40.29H24.723a4.893 4.893 0 0 0-4.89 4.887v10.121a1.164 1.164 0 0 0 1.986.821l13.843-13.843a1.16 1.16 0 0 0-.822-1.986"/></g></symbol><symbol viewBox="0 0 111.706 113.952" id="next-meetings" xmlns="http://www.w3.org/2000/svg"><defs><clipPath id="ba"><path d="M0 85.464h83.779V0H0z"/></clipPath></defs><g clip-path="url(#ba)" transform="matrix(1.33333 0 0 -1.33333 0 113.952)"><path d="M63.898 32.834a9.244 9.244 0 0 1-1.867 2.825 8.36 8.36 0 0 1-2.752 1.863c-2.162.946-4.682.982-7.58-.388l.838 4.767h8.213c.988 0 1.742.204 2.27.656.544.463.817 1.055.817 1.796 0 1.145-.546 2.52-3.214 2.52h-9.45c-1.132 0-1.974-.263-2.498-.819-.525-.525-.86-1.318-1.029-2.442l-1.533-8.593c-.21-1.171-.21-1.245-.21-1.292 0-.636.294-1.228.817-1.723.526-.487 1.157-.744 1.828-.744.631 0 1.366.335 2.268 1.023.818.62 1.45 1.045 1.89 1.291.253.153.84.331 2.016.331.756 0 1.471-.194 2.078-.54.631-.368 1.137-.925 1.493-1.675.398-.772.566-1.696.566-2.767 0-1.013-.168-1.911-.525-2.704-.336-.761-.84-1.391-1.49-1.816-.608-.425-1.366-.646-2.206-.646a4.11 4.11 0 0 0-2.498.813c-.758.531-1.365 1.334-1.806 2.332-.547 1.302-1.45 1.969-2.604 1.969a2.247 2.247 0 0 1-1.723-.751c-.46-.484-.693-1.019-.693-1.586 0-.84.275-1.79.883-2.877.588-1.081 1.576-2.026 2.982-2.856 1.365-.824 3.192-1.249 5.397-1.249 1.996 0 3.738.446 5.271 1.312 1.531.861 2.71 2.048 3.506 3.539.8 1.459 1.22 3.134 1.22 4.935a9.254 9.254 0 0 1-.675 3.496m-23.393-8.479c-.566.436-1.386.646-2.373.646h-8.65c.145.199.293.389.44.551.65.788 1.888 1.922 3.654 3.371 1.806 1.465 3.107 2.573 3.863 3.25.8.72 1.576 1.701 2.332 2.966.777 1.25 1.176 2.683 1.176 4.232 0 .992-.21 1.958-.59 2.882a7.499 7.499 0 0 1-1.553 2.435 7.602 7.602 0 0 1-2.308 1.681c-1.346.598-2.983.892-4.873.892-1.555 0-2.94-.236-4.096-.714-1.176-.457-2.164-1.076-2.94-1.859-.777-.755-1.365-1.601-1.744-2.561-.377-.94-.566-1.859-.566-2.725 0-.782.232-1.433.693-1.901.461-.467 1.071-.692 1.764-.692.797 0 1.428.273 1.85.792.378.462.712 1.129 1.007 1.959.358 1.007.502 1.292.567 1.391.818 1.27 1.91 1.89 3.36 1.89a4.07 4.07 0 0 0 1.91-.468 3.304 3.304 0 0 0 1.324-1.26c.335-.54.503-1.17.503-1.848 0-.661-.168-1.333-.482-2.005-.316-.698-.82-1.402-1.449-2.058-.612-.672-1.406-1.365-2.352-2.042-.588-.368-1.49-1.15-2.814-2.363a97.918 97.918 0 0 1-4.305-4.263c-.422-.43-.818-1.034-1.137-1.774-.355-.772-.545-1.386-.545-1.885 0-.772.317-1.459.883-2.011.567-.572 1.365-.866 2.373-.866h13.21c.902 0 1.595.246 2.038.74.461.473.692 1.066.692 1.754 0 .782-.274 1.407-.862 1.863m39.946 39.733V6.581c-.91-4.722-8.584-3.209-12.145-3.209H7.481c-5.005 0-4.153 4.876-4.153 8.415V68.822c0 4.575 9.262 3.104 11.461 3.104h4.73v-9.2c0-2.096 3.25-2.096 3.25 0v9.2H40.7v-9.2c0-2.096 3.25-2.096 3.25 0v9.2h17.932v-9.2c0-2.096 3.25-2.096 3.25 0v9.2h10.872c4.834 0 4.446-4.463 4.446-7.838m1.414 9.251c-2.06 2.667-7.449 1.837-10.363 1.837h-6.369v8.716c0 2.096-3.25 2.096-3.25 0v-8.716H43.951v8.716c0 2.096-3.25 2.096-3.25 0v-8.716H22.768v8.716c0 2.096-3.25 2.096-3.25 0v-8.716H9.241c-4.185 0-9.163-.84-9.163-6.271V13.022c0-3.871-.657-7.836 1.836-11.063C3.974-.707 9.372.122 12.276.122h61.822c4.358 0 8.81.419 9.542 5.827.035.137.061.282.061.444V62.276c0 3.871.656 7.836-1.836 11.063"/></g></symbol><symbol viewBox="0 0 108.421 101.755" id="past-meetings" xmlns="http://www.w3.org/2000/svg"><defs><clipPath id="ca"><path d="M0 76.316h81.315V0H0z"/></clipPath></defs><g clip-path="url(#ca)" transform="matrix(1.33333 0 0 -1.33333 0 101.755)"><path d="M27.644 50.12c-.643 0-1.163.52-1.163 1.163V75.15c0 .643.52 1.166 1.163 1.166h31.422c.308 0 .605-.123.823-.342l13.874-13.876a1.16 1.16 0 0 0 .342-.823v-9.917a1.164 1.164 0 1 0-2.328 0v9.436L58.583 73.987H28.808V51.283c0-.643-.521-1.164-1.164-1.164"/><path d="M60.23 62.44h9.9l-9.9 9.9zm12.71-2.328H59.066c-.645 0-1.165.52-1.165 1.163v13.876a1.164 1.164 0 0 0 1.987.823l13.875-13.877a1.165 1.165 0 0 0-.823-1.986M10.196 0c-3.69 0-6.872 2.998-7.093 6.683L.011 58.377c-.109 1.837.515 3.576 1.756 4.896 1.242 1.32 2.941 2.046 4.783 2.046h20.93v-4.328H6.55a2.208 2.208 0 0 1-1.63-.684 2.214 2.214 0 0 1-.588-1.671L7.423 6.94c.084-1.391 1.38-2.612 2.773-2.612h60.062c1.431 0 2.805 1.25 2.941 2.675l.91 9.602c.012.14.047.256.075.337l2.79 29.909c.06.62-.119 1.193-.502 1.616-.383.42-.937.652-1.558.652h-48.42c-.195 0-.387.026-.572.077a.883.883 0 0 1-.51-.178c-.367-.254-1.59-1.421-2.038-5.865-.923-9.188-4.41-32.262-4.444-32.472a2.174 2.174 0 0 0-2.458-1.811 2.147 2.147 0 0 0-1.422.857 2.144 2.144 0 0 0-.396 1.608c.034.225 3.491 23.084 4.413 32.249.46 4.586 1.808 7.641 4.005 9.077a5.14 5.14 0 0 0 2.817.861c.344 0 .633-.037.84-.075h48.185c1.854 0 3.544-.735 4.76-2.069 1.211-1.333 1.784-3.084 1.611-4.932l-2.86-30.676a1.429 1.429 0 0 0-.083-.353l-.835-8.822C77.162 2.958 73.91 0 70.258 0z"/><path d="M78.934 50.705c-1.022 1.123-2.45 1.742-4.02 1.742H26.63c-.492.106-1.708.23-3.011-.623-1.931-1.263-3.128-4.068-3.557-8.34-.923-9.174-4.385-32.07-4.42-32.3a1.162 1.162 0 1 1 2.3-.348c.036.23 3.509 23.182 4.436 32.417.459 4.563 1.739 6.086 2.46 6.586.695.482 1.292.337 1.297.337.116-.038.236-.057.358-.057h48.42c.907 0 1.723-.349 2.299-.98.575-.633.844-1.479.758-2.38l-2.802-30.035c-.02-.072-.057-.136-.064-.213l-.91-9.602c-.184-1.94-1.988-3.58-3.937-3.58H10.197c-1.93 0-3.656 1.626-3.772 3.552L3.334 58.576c-.054.914.25 1.772.858 2.416.606.645 1.443 1 2.358 1h19.93v2.327H6.55c-1.561 0-3.003-.615-4.054-1.73-1.05-1.118-1.58-2.59-1.486-4.153L4.102 6.742C4.29 3.576 7.026 1 10.197 1h60.06c3.153 0 5.957 2.553 6.255 5.69l.848 8.95c.023.073.06.142.068.223l2.86 30.676c.148 1.563-.332 3.042-1.354 4.166"/></g></symbol><symbol viewBox="0 0 16 16" id="required" xmlns="http://www.w3.org/2000/svg"><path fill="#E00" d="M0 7.562l1.114-3.438c2.565.906 4.43 1.688 5.59 2.35-.306-2.921-.467-4.93-.484-6.027h3.511c-.05 1.597-.234 3.6-.558 6.003 1.664-.838 3.566-1.613 5.714-2.325L16 7.562c-2.05.678-4.06 1.131-6.028 1.356.984.856 2.372 2.381 4.166 4.575l-2.906 2.059c-.935-1.274-2.041-3.009-3.316-5.206-1.194 2.275-2.244 4.013-3.147 5.206l-2.856-2.059c1.872-2.307 3.211-3.832 4.017-4.575A86.77 86.77 0 0 1 0 7.562"/></symbol><symbol viewBox="0 0 108.117 87.874" id="video" xmlns="http://www.w3.org/2000/svg"><defs><clipPath id="ea"><path d="M0 65.906h81.088V0H0z"/></clipPath><clipPath id="eb"><path d="M32.783 18.552l15.53 14.412-15.53 14.4z"/></clipPath></defs><g clip-path="url(#ea)" transform="matrix(1.33333 0 0 -1.33333 0 87.874)"><path d="M16.201 59.715c-5.532 0-10.024-4.497-10.024-10.018V16.213c0-5.514 4.492-10.023 10.024-10.023h48.664c5.53 0 10.026 4.509 10.026 10.023v33.484c0 5.52-4.496 10.018-10.026 10.018zM64.865 0H16.201C7.263 0 .001 7.287.001 16.213v33.484c0 8.914 7.262 16.209 16.2 16.209h48.664c8.951 0 16.223-7.295 16.223-16.21V16.214C81.088 7.287 73.816 0 64.865 0"/></g><g clip-path="url(#eb)" transform="matrix(1.33333 0 0 -1.33333 0 87.874)"><path d="M32.783 18.552l15.53 14.412-15.53 14.4z"/></g></symbol></svg>