<svg xmlns="http://www.w3.org/2000/svg" height="95.279" width="87.384"><defs><clipPath id="a"><path d="M0 71.459h65.538V0H0z"/></clipPath></defs><g clip-path="url(#a)" transform="matrix(1.33333 0 0 -1.33333 0 95.279)" fill="#404040"><path d="M7.613 31.462c5.195 4.96 13.961 10.361 26.212 7.88 16.752-3.37 24.932 11.882 26.074 14.242l5.64-3.574c-1.128-2.089-3.622-6.208-7.623-10.004-5.186-4.968-13.94-10.37-26.194-7.896C14.938 35.495 6.77 20.172 5.638 17.874L0 21.448c1.12 2.097 3.63 6.201 7.613 10.014"/><path d="M37.337 67.885l-5.638 3.574c-1.417-1.906-4.061-5.93-5.805-11.156-1.501-4.493-2.508-10.49-.866-16.927a31.81 31.81 0 0 0 7.7-.157c-4.955 11.924 3.15 22.88 4.609 24.666M28.202 3.574L33.84 0c1.41 1.914 4.067 5.923 5.796 11.166 1.508 4.48 2.505 10.487.89 16.9a32.225 32.225 0 0 0-7.726.18c4.966-11.952-3.184-22.915-4.598-24.672"/><path d="M64.596 48.423c-.552-.87-2.273-.762-3.823.22L32.507 66.56c-1.567.994-2.382 2.493-1.83 3.363.544.856 2.246.76 3.815-.233l28.265-17.916c1.549-.982 2.383-2.493 1.839-3.35M34.875 1.532c.551.871-.285 2.375-1.834 3.358L4.774 22.806c-1.567.993-3.267 1.095-3.818.225-.547-.862.269-2.359 1.836-3.352L31.06 1.763c1.547-.982 3.269-1.093 3.815-.23"/></g></svg>