<svg xmlns="http://www.w3.org/2000/svg" height="78.973" width="78.937"><defs><clipPath id="a"><path d="M0 59.229h59.203V0H0z"/></clipPath></defs><g clip-path="url(#a)" transform="matrix(1.33333 0 0 -1.33333 0 78.973)" fill="#404040"><path d="M30.986 18.144c.494-.481.114-1.097-.875-1.376l-6.998-1.895c-.964-.253-1.534.317-1.28 1.287l1.888 6.999c.292.995.901 1.375 1.382.893zm6.594 3.309l13.122 13.104 2.765 2.84-3.589 3.6-1.902 1.915-3.664 3.64-2.814-2.817L28.4 30.632c-1.19-2.023-.925-4.723.8-6.466l1.913-1.914c1.75-1.744 4.412-2.01 6.467-.799m8.558 27.107l2.295-2.358 4.717-4.723 2.307-2.39 2.777 2.764a3.33 3.33 0 0 1 0 4.698l-4.742 4.723a3.28 3.28 0 0 1-4.666 0z"/><path d="M40.725 13.09h-9.041V3.823l-.012-.037H8.19a4.544 4.544 0 0 0-4.538 4.533v42.6a4.5 4.5 0 0 0 1.318 3.195 4.547 4.547 0 0 0 3.22 1.338h28.02c1.204 0 2.333-.482 3.196-1.338a4.445 4.445 0 0 0 1.319-3.195v-2.725l.976.963c.278.298.608.52.95.69.178.496.47.927.838 1.313l.86.875a7.66 7.66 0 0 1-2.243 4.888c-1.42 1.413-3.36 2.308-5.527 2.308H7.786c-2.144 0-4.096-.895-5.504-2.308A7.666 7.666 0 0 1 0 51.438V7.817C0 3.506 3.487 0 7.786 0h24.126c.837 0 1.624.368 2.219.945l9.344 9.344c.559.532.863 1.3.9 2.073.026.115.026.228.026.355h-.026v10.302l-3.65-3.626z"/><path d="M9.242 44.42h25.903a1.87 1.87 0 0 1 1.865 1.857c0 1.022-.85 1.839-1.865 1.839H9.242a1.838 1.838 0 0 1-1.85-1.84 1.85 1.85 0 0 1 1.85-1.856m0-3.715a1.84 1.84 0 0 1-1.85-1.845c0-1.02.823-1.838 1.85-1.838h20.312l3.702 3.683zM25.8 33.231l.064.09H9.242c-1.027 0-1.85-.85-1.85-1.853a1.85 1.85 0 0 1 1.85-1.857h14.86c.216.995.57 1.965 1.116 2.897.165.26.368.501.583.723m-4.819-7.321H9.242a1.838 1.838 0 0 1-1.85-1.858c0-.983.822-1.839 1.85-1.839h10.396l.521 1.94a5.59 5.59 0 0 0 .823 1.756m-2.724-8.767l.38 1.376H9.242a1.855 1.855 0 0 1-1.85-1.863c0-1.015.823-1.833 1.85-1.833h8.914c-.152.723-.115 1.528.102 2.32"/></g></svg>