<svg xmlns="http://www.w3.org/2000/svg" height="110.523" width="110.53"><defs><clipPath id="a"><path d="M0 82.893h82.897V0H0z"/></clipPath></defs><g clip-path="url(#a)" transform="matrix(1.33333 0 0 -1.33333 0 110.523)"><path d="M39.493 12.17h.132c1.542-.1 2.417-1.68 3.435-3.511.204-.367.475-.854.735-1.27.193.445.398.975.545 1.357.757 1.952 1.415 3.639 2.926 3.94.136.03.285.052.427.052 1.34 0 2.482-1.185 3.803-2.55.287-.286.675-.696 1.03-1.027.075.482.136 1.042.183 1.45.226 2.076.42 3.886 1.801 4.567.306.152.655.23 1.022.23 1.12 0 2.318-.717 3.708-1.55.356-.208.837-.496 1.268-.732a29.984 29.984 0 0 1-.202 1.45c-.316 2.068-.595 3.856.561 4.876.438.388 1.025.588 1.752.588.923 0 2-.308 3.162-.632.446-.128.962-.28 1.408-.386-.172.459-.4.968-.575 1.349-.847 1.918-1.565 3.576-.717 4.855.763 1.14 2.297 1.234 3.805 1.234.315 0 .633 0 .948-.015.531 0 1.092-.006 1.466 0-.288.404-.647.834-.892 1.157-1.32 1.63-2.456 3.045-1.966 4.503.488 1.464 2.255 1.91 4.28 2.412.402.1.948.244 1.407.38-.373.31-.819.64-1.164.883-1.68 1.236-3.144 2.299-3.044 3.843.087 1.544 1.666 2.419 3.503 3.439.36.2.85.474 1.264.733-.446.2-.96.395-1.349.546-1.953.76-3.649 1.407-3.95 2.929-.302 1.507.99 2.765 2.5 4.223.3.286.703.675 1.033 1.033a37.07 37.07 0 0 1-1.45.18c-2.083.222-3.878.423-4.567 1.802-.69 1.379.245 2.93 1.322 4.732.215.352.502.84.732 1.272-.445-.05-.949-.13-1.45-.201-.893-.144-1.797-.29-2.587-.29-.388 0-1.549 0-2.298.836-1.023 1.163-.52 2.9.06 4.917.1.396.256.935.372 1.416a20.812 20.812 0 0 1-1.339-.576c-1.286-.56-2.5-1.098-3.529-1.098-.514 0-.959.122-1.337.38-1.284.848-1.256 2.658-1.223 4.754.006.417.013.977 0 1.466a25.446 25.446 0 0 1-1.15-.905c-1.382-1.105-2.57-2.068-3.802-2.068-.244 0-.48.043-.707.115-1.46.488-1.899 2.248-2.412 4.28-.099.403-.237.947-.379 1.407-.305-.373-.635-.834-.879-1.163-1.199-1.637-2.236-3.06-3.713-3.06l-.133.008c-1.539.092-2.419 1.673-3.439 3.512-.197.358-.47.846-.729 1.263-.196-.445-.398-.977-.545-1.35-.76-1.961-1.416-3.65-2.926-3.95a2.016 2.016 0 0 0-.427-.043c-1.34 0-2.482 1.178-3.799 2.543-.29.294-.679.696-1.034 1.033-.079-.488-.138-1.041-.184-1.451-.226-2.081-.419-3.884-1.8-4.573a2.311 2.311 0 0 0-1.02-.231c-1.122 0-2.32.726-3.714 1.552-.35.215-.833.503-1.263.732.054-.48.136-1.041.205-1.442.315-2.076.595-3.864-.56-4.884-.443-.387-1.034-.59-1.757-.59-.916 0-2.007.31-3.158.64-.45.13-.959.28-1.408.38.176-.458.402-.968.567-1.35.847-1.91 1.58-3.574.725-4.853-.753-1.135-2.297-1.236-3.809-1.236-.313 0-.633.008-.952.015-.523 0-1.08.007-1.458 0 .284-.402.636-.832.898-1.156 1.31-1.63 2.445-3.038 1.953-4.503-.487-1.464-2.245-1.91-4.28-2.412-.398-.101-.944-.237-1.406-.374.376-.315.832-.646 1.162-.89 1.692-1.235 3.153-2.3 3.06-3.842-.098-1.543-1.68-2.42-3.513-3.44-.36-.201-.85-.473-1.263-.732.442-.194.966-.395 1.35-.545 1.957-.762 3.644-1.408 3.948-2.923.307-1.516-.994-2.772-2.498-4.23a27.217 27.217 0 0 1-1.033-1.034c.48-.071 1.037-.13 1.446-.178 2.085-.224 3.881-.426 4.573-1.804.687-1.378-.244-2.928-1.324-4.731a34.636 34.636 0 0 1-.732-1.265c.445.052.952.122 1.447.202.891.137 1.806.279 2.582.279.387 0 1.562 0 2.302-.831 1.022-1.164.522-2.903-.052-4.921-.11-.394-.268-.932-.38-1.406.452.172.965.395 1.347.566 1.285.56 2.495 1.106 3.525 1.106.506 0 .96-.128 1.332-.387 1.29-.847 1.26-2.657 1.225-4.754a32.477 32.477 0 0 1 0-1.465c.391.288.832.646 1.148.906 1.383 1.105 2.575 2.067 3.803 2.067.245 0 .481-.042.707-.115 1.462-.488 1.9-2.24 2.41-4.28.104-.401.237-.947.375-1.407.31.373.64.833.881 1.163 1.202 1.637 2.24 3.059 3.716 3.059M44.143 0c-1.772 0-2.772 1.793-3.92 3.862-.276.495-.676 1.22-1.006 1.707-.39-.448-.879-1.117-1.213-1.573-1.323-1.793-2.458-3.351-4.08-3.351-.149 0-.3 0-.447.03-1.833.363-2.372 2.519-2.946 4.785-.134.55-.334 1.352-.527 1.918-.49-.338-1.132-.858-1.576-1.211-1.514-1.22-2.825-2.274-4.177-2.274-.374 0-.733.087-1.054.245-1.677.818-1.64 3.036-1.604 5.37.01.56.022 1.394-.017 1.985-.562-.198-1.317-.528-1.837-.756-1.408-.622-2.74-1.203-3.866-1.203-.846 0-1.397.323-1.71.597-1.409 1.227-.804 3.35-.158 5.602.153.55.382 1.337.5 1.927-.563-.041-1.276-.15-1.97-.261-.972-.141-1.983-.298-2.833-.298h-.007c-.492 0-1.932 0-2.706 1.155-1.047 1.552.095 3.455 1.294 5.46.29.488.715 1.187.98 1.723-.586.118-1.403.205-1.968.267-2.327.252-4.53.488-5.136 2.266-.606 1.762.986 3.304 2.666 4.932.41.393 1 .968 1.393 1.416-.539.26-1.302.558-1.829.763C2.201 35.93.137 36.726.006 38.59c-.123 1.872 1.806 2.943 3.855 4.083.497.275 1.22.669 1.713 1.008-.453.385-1.113.872-1.574 1.203-1.888 1.392-3.674 2.698-3.32 4.53.358 1.84 2.505 2.376 4.78 2.942.55.142 1.347.346 1.914.535-.334.489-.85 1.133-1.204 1.574-1.47 1.825-2.859 3.555-2.036 5.23.79 1.613 2.926 1.613 4.338 1.613.337 0 .691 0 1.038-.01.33-.005.665-.005.988-.005.432 0 .76.006.998.023-.196.566-.527 1.313-.76 1.833-.943 2.147-1.836 4.168-.605 5.584.496.567 1.215.866 2.135.866 1.011 0 2.207-.346 3.474-.708.625-.18 1.357-.393 1.918-.495a25.376 25.376 0 0 1-.255 1.965c-.357 2.32-.7 4.509.854 5.546a2.44 2.44 0 0 0 1.383.409c1.232 0 2.55-.787 4.075-1.706.488-.291 1.193-.716 1.726-.976.114.59.207 1.4.264 1.959.252 2.337.491 4.53 2.262 5.145a2.5 2.5 0 0 0 .764.125c1.47 0 2.721-1.29 4.172-2.792.398-.41.968-1 1.415-1.392.261.534.56 1.305.764 1.824.846 2.188 1.647 4.256 3.513 4.39h.156c1.78 0 2.772-1.794 3.922-3.862.28-.497.676-1.22 1.007-1.707.393.448.876 1.117 1.212 1.573 1.321 1.8 2.456 3.358 4.081 3.358.15 0 .3-.007.445-.04 1.832-.36 2.373-2.508 2.943-4.781.137-.551.338-1.353.527-1.921.496.348 1.136.86 1.577 1.212 1.517 1.228 2.827 2.274 4.176 2.274a2.51 2.51 0 0 0 1.06-.237c1.674-.825 1.642-3.036 1.604-5.38-.009-.565-.026-1.391.015-1.982.566.197 1.321.527 1.832.756 1.417.62 2.75 1.21 3.882 1.21.834 0 1.384-.321 1.698-.597 1.418-1.227.804-3.36.158-5.608-.158-.551-.376-1.338-.488-1.92.552.032 1.276.142 1.968.253.96.148 1.966.298 2.832.298.472 0 1.935 0 2.705-1.156 1.038-1.55-.094-3.453-1.29-5.452-.299-.487-.725-1.196-.976-1.73.582-.111 1.402-.203 1.951-.268 2.344-.252 4.547-.487 5.145-2.265.613-1.762-.976-3.304-2.658-4.924-.41-.402-1.009-.975-1.4-1.416.534-.267 1.305-.566 1.825-.771 2.202-.842 4.262-1.643 4.387-3.51.127-1.871-1.807-2.94-3.853-4.073-.504-.283-1.21-.676-1.715-1.015a29.514 29.514 0 0 1 1.573-1.203c1.89-1.384 3.682-2.691 3.32-4.531-.36-1.833-2.5-2.376-4.783-2.942-.55-.142-1.337-.338-1.904-.534.331-.49.851-1.134 1.195-1.574 1.464-1.825 2.865-3.555 2.03-5.231-.786-1.613-2.908-1.613-4.326-1.613-.346 0-.693 0-1.039.009-.329.008-.66.008-.99.008-.425 0-.755-.008-.992-.024.19-.566.52-1.314.756-1.833.944-2.148 1.842-4.17.614-5.585-.504-.567-1.228-.857-2.14-.857-1.024 0-2.219.337-3.477.7-.63.18-1.353.393-1.923.504.05-.6.177-1.418.255-1.967.363-2.32.692-4.508-.853-5.555a2.45 2.45 0 0 0-1.383-.408c-1.228 0-2.554.794-4.08 1.714-.484.284-1.188.709-1.723.968-.113-.581-.2-1.4-.267-1.96-.253-2.336-.492-4.53-2.258-5.143a2.463 2.463 0 0 0-.758-.126c-1.476 0-2.727 1.298-4.182 2.8-.39.402-.959.992-1.41 1.386-.26-.536-.56-1.298-.764-1.826-.849-2.186-1.648-4.247-3.512-4.381L44.148 0z" fill="#434861"/><path d="M41.45 23.39c-9.973 0-18.06 8.08-18.06 18.062 0 9.97 8.087 18.05 18.06 18.05 9.97 0 18.054-8.08 18.054-18.05 0-9.981-8.084-18.062-18.054-18.062m21.525 16.714c.071 1.138 1.232 1.782 2.57 2.533.268.147.633.346.938.527-.329.153-.717.299-.998.41-1.43.558-2.675 1.04-2.896 2.148-.224 1.114.727 2.04 1.83 3.108.221.21.514.504.76.762-.35.053-.76.1-1.066.13-1.524.164-2.85.316-3.354 1.325-.504 1.02.175 2.158.973 3.483.153.258.364.61.53.927a22.13 22.13 0 0 1-1.058-.153c-.656-.093-1.325-.2-1.9-.2-.285 0-1.146 0-1.686.61-.756.857-.388 2.135.035 3.613.083.293.193.692.276 1.039-.334-.13-.709-.3-.986-.416-.945-.417-1.835-.81-2.592-.81-.375 0-.704.094-.982.28-.943.623-.923 1.954-.899 3.496.008.3.011.716.002 1.067a25.98 25.98 0 0 1-.847-.656c-1.018-.815-1.892-1.52-2.795-1.52a1.66 1.66 0 0 0-.516.083c-1.076.358-1.402 1.647-1.774 3.149-.075.288-.173.693-.278 1.032-.223-.282-.466-.61-.648-.856-.883-1.208-1.645-2.252-2.73-2.252l-.097.007c-1.132.069-1.779 1.237-2.527 2.574-.147.27-.346.633-.534.932-.147-.322-.297-.71-.405-.991-.557-1.443-1.038-2.674-2.149-2.903a1.832 1.832 0 0 0-.317-.028c-.982 0-1.822.866-2.792 1.863-.21.218-.499.517-.759.763-.056-.352-.099-.763-.132-1.067-.164-1.525-.31-2.851-1.323-3.355a1.61 1.61 0 0 0-.752-.17c-.825 0-1.708.523-2.727 1.138-.262.158-.613.37-.93.534.04-.352.102-.763.15-1.057.234-1.524.44-2.837-.414-3.588-.323-.293-.757-.434-1.29-.434-.67 0-1.472.229-2.32.469-.332.094-.707.199-1.035.282.126-.335.293-.716.417-.998.624-1.406 1.157-2.627.53-3.565-.55-.84-1.685-.903-2.8-.903h-.696c-.386.01-.795.01-1.076.006.212-.288.473-.617.663-.851.965-1.196 1.798-2.233 1.438-3.307-.362-1.078-1.655-1.402-3.147-1.772-.294-.081-.692-.174-1.038-.28.281-.223.613-.47.86-.646 1.243-.915 2.315-1.701 2.246-2.826-.072-1.138-1.235-1.784-2.58-2.534-.265-.14-.629-.341-.93-.528.325-.152.713-.298.996-.411 1.433-.551 2.676-1.031 2.9-2.146.224-1.114-.733-2.04-1.838-3.108-.217-.211-.513-.492-.759-.762.351-.053.765-.095 1.063-.13 1.532-.163 2.854-.31 3.36-1.324.506-1.021-.177-2.16-.97-3.478-.155-.264-.369-.616-.539-.933.328.036.701.094 1.064.153.651.099 1.327.199 1.898.199.285 0 1.147 0 1.692-.61.75-.856.385-2.134-.042-3.612-.078-.293-.193-.693-.274-1.032.334.128.71.293.987.41.944.423 1.836.809 2.59.809.375 0 .703-.093.981-.275.944-.628.924-1.953.898-3.495-.003-.306-.012-.716 0-1.074.29.21.613.47.846.657 1.016.82 1.893 1.525 2.795 1.525.18 0 .352-.03.52-.082 1.076-.364 1.395-1.654 1.771-3.155.072-.287.176-.692.278-1.032.226.28.47.61.648.856.883 1.207 1.646 2.252 2.73 2.252h.096c1.133-.071 1.778-1.232 2.528-2.581.147-.27.346-.626.535-.932.145.328.296.71.404.992.557 1.44 1.035 2.679 2.145 2.908.103.01.211.023.318.023.984 0 1.826-.868 2.794-1.864.212-.223.5-.517.76-.763.053.35.1.763.131 1.067.168 1.53.308 2.85 1.327 3.36.224.112.478.17.75.17.823 0 1.706-.527 2.726-1.143.262-.158.613-.37.93-.534-.037.353-.103.764-.15 1.062-.234 1.519-.436 2.833.414 3.589.323.288.76.428 1.287.428.675 0 1.478-.223 2.32-.47.34-.093.715-.198 1.043-.28-.128.34-.293.715-.422.996-.62 1.409-1.158 2.628-.527 3.567.55.838 1.688.908 2.802.908.223 0 .458-.005.692-.005.388-.013.8-.013 1.068 0-.2.286-.47.609-.656.843-.963 1.197-1.796 2.24-1.432 3.308.352 1.08 1.642 1.402 3.144 1.777.293.077.692.17 1.032.275-.28.223-.609.469-.855.646-1.245.914-2.313 1.7-2.242 2.827" fill="#7f7887"/></g></svg>