<svg xmlns="http://www.w3.org/2000/svg" height="75.279" width="48.005"><defs><clipPath id="a"><path d="M0 56.459h36.004V0H0z"/></clipPath></defs><g clip-path="url(#a)" transform="matrix(1.33333 0 0 -1.33333 0 75.28)"><path d="M4.89 54.132a2.565 2.565 0 0 1-2.562-2.561V4.888c0-1.41 1.15-2.56 2.562-2.56h26.226a2.565 2.565 0 0 1 2.56 2.56V40.97l-13.16 13.16zM31.116 0H4.89A4.896 4.896 0 0 0 0 4.888V51.57a4.895 4.895 0 0 0 4.89 4.888h16.107c.309 0 .605-.121.823-.341l13.842-13.842c.22-.218.342-.514.342-.824V4.888A4.893 4.893 0 0 0 31.116 0"/><path d="M22.16 52.485v-7.309a2.564 2.564 0 0 1 2.563-2.559h7.308zM34.84 40.29H24.723a4.893 4.893 0 0 0-4.89 4.887v10.121a1.164 1.164 0 0 0 1.986.821l13.843-13.843a1.16 1.16 0 0 0-.822-1.986"/></g></svg>