<svg xmlns="http://www.w3.org/2000/svg" viewBox="0 0 1000 1000"><path d="M171.1 12.37c-16.46 6.13-32.55 23.55-36.95 39.82-1.34 4.59-1.72 164.65-1.53 451.82l.57 444.92 4.4 8.23c6.32 12.06 16.08 21.83 26.61 27.19l9.19 4.79 323.55.57c368.73.57 334.65 2.11 353.41-16.66 18.76-18.95 17.04 22.78 17.04-408.74V185.05l-4.59-9.57c-3.45-7.47-20.1-25.08-75.05-79.83-38.87-38.48-73.33-72.37-76.77-75.05-13.79-11.3 3.45-10.72-276.64-10.53-191.84 0-258.65.77-263.24 2.3zm491.82 113.34l.57 75.62 6.32 6.13 6.13 6.32 75.62.57 75.62.58v363.55c0 361.26 0 363.75-3.83 367.58-3.83 3.83-6.32 3.83-323.55 3.83s-319.72 0-323.55-3.83c-3.83-3.83-3.83-6.32-3.83-446.07s0-442.24 3.83-446.07c3.83-3.83 6.32-3.83 245.05-3.83h241.03l.59 75.62zm93.43-3.83l50.73 50.73H704.65v-50.73c0-27.95.19-50.73.57-50.73.21-.01 23.18 22.78 51.13 50.73z"/><path d="M281.37 342.81c-8.23 8.42-7.85 19.34.96 28.14l6.51 6.51 121.57-.38 121.57-.57 4.98-4.59c9.76-9.19 7.66-27.19-3.83-32.55-3.45-1.53-40.58-2.11-125.4-2.11h-120.8l-5.56 5.55zm0 122.52c-8.23 8.23-7.85 19.34.96 28.14l6.51 6.51H712.7l6.51-6.51c9.38-9.38 8.62-21.82-1.91-30.25-3.83-3.06-18.19-3.45-217.1-3.45H286.92l-5.55 5.56zm0 122.53c-9 9.19-7.08 24.89 4.02 31.4 4.98 3.06 22.97 3.25 216.34 3.25H712.7l6.51-6.51c9.38-9.38 8.62-21.82-1.91-30.25-3.83-3.06-18.19-3.45-217.1-3.45H286.92l-5.55 5.56zm0 122.53c-9 9.19-7.08 24.89 4.02 31.4 4.98 3.06 22.97 3.25 216.34 3.25H712.7l6.51-6.51c9.38-9.38 8.62-21.82-1.91-30.25-3.83-3.06-18.19-3.45-217.1-3.45H286.92l-5.55 5.56z"/></svg>