<svg xmlns="http://www.w3.org/2000/svg" data-name="Layer 1" id="Layer_1" viewBox="0 0 24 24"><defs id="defs4"><style id="style2"/></defs><g data-name="&lt;Group&gt;" id="_Group_" color="#000" font-weight="400" font-family="sans-serif" white-space="normal" fill="#1d1d1b" stroke-linecap="round" stroke-linejoin="round"><path style="line-height:normal;font-variant-ligatures:normal;font-variant-position:normal;font-variant-caps:normal;font-variant-numeric:normal;font-variant-alternates:normal;font-feature-settings:normal;text-indent:0;text-align:start;text-decoration-line:none;text-decoration-style:solid;text-decoration-color:#000;text-transform:none;text-orientation:mixed;shape-padding:0;isolation:auto;mix-blend-mode:normal" d="M13.36 9.78a1 1 0 0 0-.68 1.724 2.485 2.485 0 0 1 0 3.572l-2.862 2.81a1 1 0 0 0-.011.014 2.485 2.485 0 0 1-3.573 0 1 1 0 0 0-.013-.015 2.483 2.483 0 0 1 0-3.57 1 1 0 0 0 .006-.008l.86-.86a1 1 0 1 0-1.413-1.414l-.854.852c-1.79 1.753-1.79 4.665-.006 6.422a4.513 4.513 0 0 0 6.415-.002l2.851-2.801c1.792-1.756 1.792-4.672 0-6.428a1 1 0 0 0-.72-.297z" id="_Path_" overflow="visible"/><path style="line-height:normal;font-variant-ligatures:normal;font-variant-position:normal;font-variant-caps:normal;font-variant-numeric:normal;font-variant-alternates:normal;font-feature-settings:normal;text-indent:0;text-align:start;text-decoration-line:none;text-decoration-style:solid;text-decoration-color:#000;text-transform:none;text-orientation:mixed;shape-padding:0;isolation:auto;mix-blend-mode:normal" d="M16.31 3.355c-1.165 0-2.33.447-3.206 1.338l-.002.002c-.002.002-.005.002-.006.004L10.3 7.496c-1.792 1.756-1.792 4.672 0 6.428a1 1 0 1 0 1.398-1.428 2.485 2.485 0 0 1 0-3.572 1 1 0 0 0 .008-.006l2.81-2.81a1 1 0 0 0 .006-.008 2.485 2.485 0 0 1 3.573 0 1 1 0 0 0 .013.015 2.483 2.483 0 0 1 0 3.57 1 1 0 0 0-.006.008l-.86.86a1 1 0 1 0 1.413 1.414l.854-.852c1.79-1.753 1.79-4.665.006-6.422a4.482 4.482 0 0 0-3.205-1.338z" id="_Path_2" overflow="visible"/></g></svg>