<svg xmlns="http://www.w3.org/2000/svg" height="113.952" width="111.706"><defs><clipPath id="a"><path d="M0 85.464h83.779V0H0z"/></clipPath></defs><g clip-path="url(#a)" transform="matrix(1.33333 0 0 -1.33333 0 113.952)"><path d="M63.898 32.834a9.244 9.244 0 0 1-1.867 2.825 8.36 8.36 0 0 1-2.752 1.863c-2.162.946-4.682.982-7.58-.388l.838 4.767h8.213c.988 0 1.742.204 2.27.656.544.463.817 1.055.817 1.796 0 1.145-.546 2.52-3.214 2.52h-9.45c-1.132 0-1.974-.263-2.498-.819-.525-.525-.86-1.318-1.029-2.442l-1.533-8.593c-.21-1.171-.21-1.245-.21-1.292 0-.636.294-1.228.817-1.723.526-.487 1.157-.744 1.828-.744.631 0 1.366.335 2.268 1.023.818.62 1.45 1.045 1.89 1.291.253.153.84.331 2.016.331.756 0 1.471-.194 2.078-.54.631-.368 1.137-.925 1.493-1.675.398-.772.566-1.696.566-2.767 0-1.013-.168-1.911-.525-2.704-.336-.761-.84-1.391-1.49-1.816-.608-.425-1.366-.646-2.206-.646a4.11 4.11 0 0 0-2.498.813c-.758.531-1.365 1.334-1.806 2.332-.547 1.302-1.45 1.969-2.604 1.969a2.247 2.247 0 0 1-1.723-.751c-.46-.484-.693-1.019-.693-1.586 0-.84.275-1.79.883-2.877.588-1.081 1.576-2.026 2.982-2.856 1.365-.824 3.192-1.249 5.397-1.249 1.996 0 3.738.446 5.271 1.312 1.531.861 2.71 2.048 3.506 3.539.8 1.459 1.22 3.134 1.22 4.935a9.254 9.254 0 0 1-.675 3.496m-23.393-8.479c-.566.436-1.386.646-2.373.646h-8.65c.145.199.293.389.44.551.65.788 1.888 1.922 3.654 3.371 1.806 1.465 3.107 2.573 3.863 3.25.8.72 1.576 1.701 2.332 2.966.777 1.25 1.176 2.683 1.176 4.232 0 .992-.21 1.958-.59 2.882a7.499 7.499 0 0 1-1.553 2.435 7.602 7.602 0 0 1-2.308 1.681c-1.346.598-2.983.892-4.873.892-1.555 0-2.94-.236-4.096-.714-1.176-.457-2.164-1.076-2.94-1.859-.777-.755-1.365-1.601-1.744-2.561-.377-.94-.566-1.859-.566-2.725 0-.782.232-1.433.693-1.901.461-.467 1.071-.692 1.764-.692.797 0 1.428.273 1.85.792.378.462.712 1.129 1.007 1.959.358 1.007.502 1.292.567 1.391.818 1.27 1.91 1.89 3.36 1.89a4.07 4.07 0 0 0 1.91-.468 3.304 3.304 0 0 0 1.324-1.26c.335-.54.503-1.17.503-1.848 0-.661-.168-1.333-.482-2.005-.316-.698-.82-1.402-1.449-2.058-.612-.672-1.406-1.365-2.352-2.042-.588-.368-1.49-1.15-2.814-2.363a97.918 97.918 0 0 1-4.305-4.263c-.422-.43-.818-1.034-1.137-1.774-.355-.772-.545-1.386-.545-1.885 0-.772.317-1.459.883-2.011.567-.572 1.365-.866 2.373-.866h13.21c.902 0 1.595.246 2.038.74.461.473.692 1.066.692 1.754 0 .782-.274 1.407-.862 1.863m39.946 39.733V6.581c-.91-4.722-8.584-3.209-12.145-3.209H7.481c-5.005 0-4.153 4.876-4.153 8.415v57.035c0 4.575 9.262 3.104 11.461 3.104h4.73v-9.2c0-2.096 3.25-2.096 3.25 0v9.2H40.7v-9.2c0-2.096 3.25-2.096 3.25 0v9.2h17.932v-9.2c0-2.096 3.25-2.096 3.25 0v9.2h10.872c4.834 0 4.446-4.463 4.446-7.838m1.414 9.251c-2.06 2.667-7.449 1.837-10.363 1.837h-6.369v8.716c0 2.096-3.25 2.096-3.25 0v-8.716H43.951v8.716c0 2.096-3.25 2.096-3.25 0v-8.716H22.768v8.716c0 2.096-3.25 2.096-3.25 0v-8.716H9.241c-4.185 0-9.163-.84-9.163-6.271V13.022c0-3.871-.657-7.836 1.836-11.063C3.974-.707 9.372.122 12.276.122h61.822c4.358 0 8.81.419 9.542 5.827.035.137.061.282.061.444v55.883c0 3.871.656 7.836-1.836 11.063"/></g></svg>