<svg xmlns="http://www.w3.org/2000/svg" height="101.755" width="108.421"><defs><clipPath id="a"><path d="M0 76.316h81.315V0H0z"/></clipPath></defs><g clip-path="url(#a)" transform="matrix(1.33333 0 0 -1.33333 0 101.755)"><path d="M27.644 50.12c-.643 0-1.163.52-1.163 1.163V75.15c0 .643.52 1.166 1.163 1.166h31.422c.308 0 .605-.123.823-.342l13.874-13.876a1.16 1.16 0 0 0 .342-.823v-9.917a1.164 1.164 0 1 0-2.328 0v9.436L58.583 73.987H28.808V51.283c0-.643-.521-1.164-1.164-1.164"/><path d="M60.23 62.44h9.9l-9.9 9.9zm12.71-2.328H59.066c-.645 0-1.165.52-1.165 1.163v13.876a1.164 1.164 0 0 0 1.987.823l13.875-13.877a1.165 1.165 0 0 0-.823-1.986M10.196 0c-3.69 0-6.872 2.998-7.093 6.683L.011 58.377c-.109 1.837.515 3.576 1.756 4.896 1.242 1.32 2.941 2.046 4.783 2.046h20.93v-4.328H6.55a2.208 2.208 0 0 1-1.63-.684 2.214 2.214 0 0 1-.588-1.671L7.423 6.94c.084-1.391 1.38-2.612 2.773-2.612h60.062c1.431 0 2.805 1.25 2.941 2.675l.91 9.602c.012.14.047.256.075.337l2.79 29.909c.06.62-.119 1.193-.502 1.616-.383.42-.937.652-1.558.652h-48.42a2.15 2.15 0 0 0-.572.077.883.883 0 0 1-.51-.178c-.367-.254-1.59-1.421-2.038-5.865-.923-9.188-4.41-32.262-4.444-32.472a2.174 2.174 0 0 0-2.458-1.811 2.147 2.147 0 0 0-1.422.857 2.144 2.144 0 0 0-.396 1.608c.034.225 3.491 23.084 4.413 32.249.46 4.586 1.808 7.641 4.005 9.077a5.14 5.14 0 0 0 2.817.861c.344 0 .633-.037.84-.075h48.185c1.854 0 3.544-.735 4.76-2.069 1.211-1.333 1.784-3.084 1.611-4.932l-2.86-30.676a1.429 1.429 0 0 0-.083-.353l-.835-8.822C77.162 2.958 73.91 0 70.258 0z"/><path d="M78.934 50.705c-1.022 1.123-2.45 1.742-4.02 1.742H26.63c-.492.106-1.708.23-3.011-.623-1.931-1.263-3.128-4.068-3.557-8.34-.923-9.174-4.385-32.07-4.42-32.3a1.162 1.162 0 1 1 2.3-.348c.036.23 3.509 23.182 4.436 32.417.459 4.563 1.739 6.086 2.46 6.586.695.482 1.292.337 1.297.337.116-.038.236-.057.358-.057h48.42c.907 0 1.723-.349 2.299-.98.575-.633.844-1.479.758-2.38l-2.802-30.035c-.02-.072-.057-.136-.064-.213l-.91-9.602c-.184-1.94-1.988-3.58-3.937-3.58h-60.06c-1.93 0-3.656 1.626-3.772 3.552L3.334 58.576c-.054.914.25 1.772.858 2.416.606.645 1.443 1 2.358 1h19.93v2.327H6.55c-1.561 0-3.003-.615-4.054-1.73a5.515 5.515 0 0 1-1.486-4.153L4.102 6.742C4.29 3.576 7.026 1 10.197 1h60.06c3.153 0 5.957 2.553 6.255 5.69l.848 8.95c.023.073.06.142.068.223l2.86 30.676c.148 1.563-.332 3.042-1.354 4.166"/></g></svg>