<svg xmlns="http://www.w3.org/2000/svg" width="85.102" height="88.107"><path style="line-height:normal;font-variant-ligatures:normal;font-variant-position:normal;font-variant-caps:normal;font-variant-numeric:normal;font-variant-alternates:normal;font-feature-settings:normal;text-indent:0;text-align:start;text-decoration-line:none;text-decoration-style:solid;text-decoration-color:#000;text-transform:none;text-orientation:mixed;shape-padding:0;isolation:auto;mix-blend-mode:normal" d="M63.684 15.05l-17.674.012c-.91-.013-1.976-.033-3.174.374l-.219.076-.203.113a11.314 11.314 0 0 0-2.441 1.848l-.002.002-23.547 23.55-.012.014c-4.437 4.567-4.382 11.951.156 16.467L34.86 75.822l.002.002c4.569 4.554 12.035 4.55 16.614.002l.002-.004 23.285-23.314a11.952 11.952 0 0 0 1.812-2.309c-.007.01.22-.352.334-.68l-.035.094.125-.25.07-.283c.25-1.023.25-1.94.235-2.726V28.639c0-4.115-1.066-7.65-3.508-10.088-2.442-2.438-5.983-3.5-10.111-3.5zm0 5c3.3 0 5.32.783 6.58 2.04 1.26 1.257 2.039 3.265 2.039 6.549v17.81c.01.575-.024.946-.08 1.258a6.945 6.945 0 0 1-.979 1.246l-.004.006-23.29 23.32c-2.672 2.654-6.894 2.655-9.554.008l-.003-.004-18.295-18.32-.002-.002a6.687 6.687 0 0 1-.098-9.438L43.506 21.01c.335-.333.725-.602 1.125-.852.248-.059.591-.106 1.303-.095h.02z" font-weight="400" font-family="sans-serif" white-space="normal" overflow="visible" stroke-width="5" stroke-miterlimit="10"/><path d="M54.768 36.971c.556.57 1.081 1.11-.031 0-1.063-1.087-.539-.547 0-.023-2.096-2.121-2.158-5.629-.106-7.842 2.143-2.282 5.892-2.375 8.127-.131 2.235 2.236 2.159 5.983-.154 8.135-2.162 2.059-5.708 1.982-7.836-.139z"/></svg>