<svg xmlns="http://www.w3.org/2000/svg" height="87.874" width="108.117"><defs><clipPath id="a"><path d="M0 65.906h81.088V0H0z"/></clipPath><clipPath id="b"><path d="M32.783 18.552l15.53 14.412-15.53 14.4z"/></clipPath></defs><g clip-path="url(#a)" transform="matrix(1.33333 0 0 -1.33333 0 87.874)"><path d="M16.201 59.715c-5.532 0-10.024-4.497-10.024-10.018V16.213c0-5.514 4.492-10.023 10.024-10.023h48.664c5.53 0 10.026 4.509 10.026 10.023v33.484c0 5.52-4.496 10.018-10.026 10.018zM64.865 0H16.201C7.263 0 .001 7.287.001 16.213v33.484c0 8.914 7.262 16.209 16.2 16.209h48.664c8.951 0 16.223-7.295 16.223-16.21V16.214C81.088 7.287 73.816 0 64.865 0"/></g><g clip-path="url(#b)" transform="matrix(1.33333 0 0 -1.33333 0 87.874)"><path d="M32.783 18.552l15.53 14.412-15.53 14.4z"/></g></svg>